<svg width="1200" height="300" viewBox="0 0 1200 300" fill="none" xmlns="http://www.w3.org/2000/svg">
<g clip-path="url(#clip0_16_23)">
<rect width="1200" height="300" fill="#1A1A2E"/>
<path d="M437.75 141.909C432.917 141.909 428.614 141.25 424.841 139.932C421.068 138.629 417.879 136.72 415.273 134.205C412.667 131.674 410.682 128.591 409.318 124.955C407.955 121.318 407.273 117.182 407.273 112.545C407.273 107.97 407.955 103.818 409.318 100.091C410.697 96.3636 412.705 93.1667 415.341 90.5C417.977 87.8182 421.197 85.7576 425 84.3182C428.818 82.8788 433.167 82.1591 438.045 82.1591C442.561 82.1591 446.591 82.8182 450.136 84.1364C453.697 85.4545 456.712 87.3333 459.182 89.7727C461.667 92.197 463.553 95.0833 464.841 98.4318C466.144 101.765 466.788 105.455 466.773 109.5C466.788 112.288 466.545 114.848 466.045 117.182C465.545 119.515 464.758 121.553 463.682 123.295C462.621 125.023 461.227 126.394 459.5 127.409C457.773 128.409 455.682 128.977 453.227 129.114C451.47 129.25 450.045 129.121 448.955 128.727C447.864 128.333 447.03 127.75 446.455 126.977C445.894 126.189 445.53 125.273 445.364 124.227H445.091C444.727 125.136 444.015 125.962 442.955 126.705C441.894 127.432 440.598 128 439.068 128.409C437.553 128.803 435.939 128.947 434.227 128.841C432.439 128.735 430.742 128.318 429.136 127.591C427.545 126.864 426.129 125.811 424.886 124.432C423.659 123.053 422.689 121.348 421.977 119.318C421.28 117.288 420.924 114.939 420.909 112.273C420.924 109.636 421.295 107.341 422.023 105.386C422.765 103.432 423.742 101.788 424.955 100.455C426.182 99.1212 427.545 98.0758 429.045 97.3182C430.545 96.5606 432.053 96.0758 433.568 95.8636C435.28 95.6061 436.902 95.6061 438.432 95.8636C439.962 96.1212 441.25 96.5379 442.295 97.1136C443.356 97.6894 444.015 98.3106 444.273 98.9773H444.591V96.4318H451.705V118.614C451.72 119.659 451.955 120.47 452.409 121.045C452.864 121.621 453.477 121.909 454.25 121.909C455.295 121.909 456.167 121.447 456.864 120.523C457.576 119.598 458.106 118.182 458.455 116.273C458.818 114.364 459 111.932 459 108.977C459 106.129 458.621 103.629 457.864 101.477C457.121 99.3106 456.076 97.4697 454.727 95.9545C453.394 94.4242 451.841 93.1818 450.068 92.2273C448.295 91.2727 446.371 90.5758 444.295 90.1364C442.235 89.697 440.114 89.4773 437.932 89.4773C434.159 89.4773 430.864 90.053 428.045 91.2045C425.227 92.3409 422.879 93.9394 421 96C419.121 98.0606 417.712 100.477 416.773 103.25C415.848 106.008 415.379 109.015 415.364 112.273C415.379 115.864 415.879 119.045 416.864 121.818C417.864 124.576 419.333 126.894 421.273 128.773C423.212 130.652 425.606 132.076 428.455 133.045C431.303 134.015 434.576 134.5 438.273 134.5C440.015 134.5 441.72 134.379 443.386 134.136C445.053 133.879 446.561 133.576 447.909 133.227C449.258 132.864 450.341 132.515 451.159 132.182L453.409 138.773C452.455 139.318 451.159 139.826 449.523 140.295C447.902 140.78 446.068 141.167 444.023 141.455C441.992 141.758 439.902 141.909 437.75 141.909ZM436.705 121.364C438.553 121.364 440.023 121.008 441.114 120.295C442.22 119.583 443.008 118.53 443.477 117.136C443.962 115.727 444.189 113.992 444.159 111.932C444.144 110.114 443.909 108.576 443.455 107.318C443.015 106.045 442.25 105.083 441.159 104.432C440.083 103.765 438.583 103.432 436.659 103.432C434.977 103.432 433.545 103.788 432.364 104.5C431.197 105.212 430.303 106.212 429.682 107.5C429.076 108.773 428.765 110.273 428.75 112C428.765 113.606 429.023 115.129 429.523 116.568C430.023 117.992 430.848 119.152 432 120.045C433.152 120.924 434.72 121.364 436.705 121.364ZM512.915 88.4545V135H504.415L484.165 105.705H483.824V135H473.983V88.4545H482.619L502.71 117.727H503.119V88.4545H512.915ZM520.864 135V100.091H530.545V135H520.864ZM525.727 95.5909C524.288 95.5909 523.053 95.1136 522.023 94.1591C521.008 93.1894 520.5 92.0303 520.5 90.6818C520.5 89.3485 521.008 88.2045 522.023 87.25C523.053 86.2803 524.288 85.7955 525.727 85.7955C527.167 85.7955 528.394 86.2803 529.409 87.25C530.439 88.2045 530.955 89.3485 530.955 90.6818C530.955 92.0303 530.439 93.1894 529.409 94.1591C528.394 95.1136 527.167 95.5909 525.727 95.5909ZM554.21 135.682C550.619 135.682 547.528 134.955 544.938 133.5C542.362 132.03 540.377 129.955 538.983 127.273C537.589 124.576 536.892 121.386 536.892 117.705C536.892 114.114 537.589 110.962 538.983 108.25C540.377 105.538 542.339 103.424 544.869 101.909C547.415 100.394 550.4 99.6364 553.824 99.6364C556.127 99.6364 558.271 100.008 560.256 100.75C562.256 101.477 563.998 102.576 565.483 104.045C566.983 105.515 568.15 107.364 568.983 109.591C569.816 111.803 570.233 114.394 570.233 117.364V120.023H540.756V114.023H561.119C561.119 112.629 560.816 111.394 560.21 110.318C559.604 109.242 558.763 108.402 557.688 107.795C556.627 107.174 555.392 106.864 553.983 106.864C552.513 106.864 551.21 107.205 550.074 107.886C548.953 108.553 548.074 109.455 547.438 110.591C546.801 111.712 546.475 112.962 546.46 114.341V120.045C546.46 121.773 546.778 123.265 547.415 124.523C548.066 125.78 548.983 126.75 550.165 127.432C551.347 128.114 552.748 128.455 554.369 128.455C555.445 128.455 556.43 128.303 557.324 128C558.218 127.697 558.983 127.242 559.619 126.636C560.256 126.03 560.741 125.288 561.074 124.409L570.028 125C569.574 127.152 568.642 129.03 567.233 130.636C565.839 132.227 564.036 133.47 561.824 134.364C559.627 135.242 557.089 135.682 554.21 135.682ZM595.119 100.091V107.364H574.097V100.091H595.119ZM578.869 91.7273H588.551V124.273C588.551 125.167 588.688 125.864 588.96 126.364C589.233 126.848 589.612 127.189 590.097 127.386C590.597 127.583 591.172 127.682 591.824 127.682C592.278 127.682 592.733 127.644 593.188 127.568C593.642 127.477 593.991 127.409 594.233 127.364L595.756 134.568C595.271 134.72 594.589 134.894 593.71 135.091C592.831 135.303 591.763 135.432 590.506 135.477C588.172 135.568 586.127 135.258 584.369 134.545C582.627 133.833 581.271 132.727 580.301 131.227C579.331 129.727 578.854 127.833 578.869 125.545V91.7273ZM619.994 100.091V107.364H598.972V100.091H619.994ZM603.744 91.7273H613.426V124.273C613.426 125.167 613.563 125.864 613.835 126.364C614.108 126.848 614.487 127.189 614.972 127.386C615.472 127.583 616.047 127.682 616.699 127.682C617.153 127.682 617.608 127.644 618.062 127.568C618.517 127.477 618.866 127.409 619.108 127.364L620.631 134.568C620.146 134.72 619.464 134.894 618.585 135.091C617.706 135.303 616.638 135.432 615.381 135.477C613.047 135.568 611.002 135.258 609.244 134.545C607.502 133.833 606.146 132.727 605.176 131.227C604.206 129.727 603.729 127.833 603.744 125.545V91.7273ZM641.699 135.682C638.169 135.682 635.116 134.932 632.54 133.432C629.979 131.917 628.002 129.811 626.608 127.114C625.214 124.402 624.517 121.258 624.517 117.682C624.517 114.076 625.214 110.924 626.608 108.227C628.002 105.515 629.979 103.409 632.54 101.909C635.116 100.394 638.169 99.6364 641.699 99.6364C645.229 99.6364 648.275 100.394 650.835 101.909C653.411 103.409 655.396 105.515 656.79 108.227C658.184 110.924 658.881 114.076 658.881 117.682C658.881 121.258 658.184 124.402 656.79 127.114C655.396 129.811 653.411 131.917 650.835 133.432C648.275 134.932 645.229 135.682 641.699 135.682ZM641.744 128.182C643.35 128.182 644.691 127.727 645.767 126.818C646.843 125.894 647.653 124.636 648.199 123.045C648.759 121.455 649.04 119.644 649.04 117.614C649.04 115.583 648.759 113.773 648.199 112.182C647.653 110.591 646.843 109.333 645.767 108.409C644.691 107.485 643.35 107.023 641.744 107.023C640.123 107.023 638.759 107.485 637.653 108.409C636.563 109.333 635.737 110.591 635.176 112.182C634.631 113.773 634.358 115.583 634.358 117.614C634.358 119.644 634.631 121.455 635.176 123.045C635.737 124.636 636.563 125.894 637.653 126.818C638.759 127.727 640.123 128.182 641.744 128.182ZM669.83 88.4545L681.08 123.818H681.511L692.784 88.4545H703.693L687.648 135H674.966L658.898 88.4545H669.83ZM715.193 135.659C712.966 135.659 710.981 135.273 709.239 134.5C707.496 133.712 706.117 132.553 705.102 131.023C704.102 129.477 703.602 127.553 703.602 125.25C703.602 123.311 703.958 121.682 704.67 120.364C705.383 119.045 706.352 117.985 707.58 117.182C708.807 116.379 710.201 115.773 711.761 115.364C713.337 114.955 714.989 114.667 716.716 114.5C718.746 114.288 720.383 114.091 721.625 113.909C722.867 113.712 723.769 113.424 724.33 113.045C724.89 112.667 725.17 112.106 725.17 111.364V111.227C725.17 109.788 724.716 108.674 723.807 107.886C722.913 107.098 721.64 106.705 719.989 106.705C718.246 106.705 716.86 107.091 715.83 107.864C714.799 108.621 714.117 109.576 713.784 110.727L704.83 110C705.284 107.879 706.178 106.045 707.511 104.5C708.845 102.939 710.564 101.742 712.67 100.909C714.792 100.061 717.246 99.6364 720.034 99.6364C721.973 99.6364 723.83 99.8636 725.602 100.318C727.39 100.773 728.973 101.477 730.352 102.432C731.746 103.386 732.845 104.614 733.648 106.114C734.451 107.598 734.852 109.379 734.852 111.455V135H725.67V130.159H725.398C724.837 131.25 724.087 132.212 723.148 133.045C722.208 133.864 721.08 134.508 719.761 134.977C718.443 135.432 716.92 135.659 715.193 135.659ZM717.966 128.977C719.39 128.977 720.648 128.697 721.739 128.136C722.83 127.561 723.686 126.788 724.307 125.818C724.928 124.848 725.239 123.75 725.239 122.523V118.818C724.936 119.015 724.519 119.197 723.989 119.364C723.473 119.515 722.89 119.659 722.239 119.795C721.587 119.917 720.936 120.03 720.284 120.136C719.633 120.227 719.042 120.311 718.511 120.386C717.375 120.553 716.383 120.818 715.534 121.182C714.686 121.545 714.027 122.038 713.557 122.659C713.087 123.265 712.852 124.023 712.852 124.932C712.852 126.25 713.33 127.258 714.284 127.955C715.254 128.636 716.481 128.977 717.966 128.977ZM752.045 88.4545V135H742.364V88.4545H752.045ZM775.71 135.682C772.119 135.682 769.028 134.955 766.438 133.5C763.862 132.03 761.877 129.955 760.483 127.273C759.089 124.576 758.392 121.386 758.392 117.705C758.392 114.114 759.089 110.962 760.483 108.25C761.877 105.538 763.839 103.424 766.369 101.909C768.915 100.394 771.9 99.6364 775.324 99.6364C777.627 99.6364 779.771 100.008 781.756 100.75C783.756 101.477 785.498 102.576 786.983 104.045C788.483 105.515 789.65 107.364 790.483 109.591C791.316 111.803 791.733 114.394 791.733 117.364V120.023H762.256V114.023H782.619C782.619 112.629 782.316 111.394 781.71 110.318C781.104 109.242 780.263 108.402 779.188 107.795C778.127 107.174 776.892 106.864 775.483 106.864C774.013 106.864 772.71 107.205 771.574 107.886C770.453 108.553 769.574 109.455 768.938 110.591C768.301 111.712 767.975 112.962 767.96 114.341V120.045C767.96 121.773 768.278 123.265 768.915 124.523C769.566 125.78 770.483 126.75 771.665 127.432C772.847 128.114 774.248 128.455 775.869 128.455C776.945 128.455 777.93 128.303 778.824 128C779.718 127.697 780.483 127.242 781.119 126.636C781.756 126.03 782.241 125.288 782.574 124.409L791.528 125C791.074 127.152 790.142 129.03 788.733 130.636C787.339 132.227 785.536 133.47 783.324 134.364C781.127 135.242 778.589 135.682 775.71 135.682Z" fill="#D61C4E"/>
<path d="M421.915 200H413.149V175.273H421.987C424.474 175.273 426.616 175.768 428.411 176.758C430.205 177.74 431.586 179.152 432.552 180.996C433.526 182.839 434.013 185.045 434.013 187.612C434.013 190.188 433.526 192.402 432.552 194.253C431.586 196.104 430.197 197.525 428.386 198.515C426.583 199.505 424.426 200 421.915 200ZM418.377 195.521H421.697C423.243 195.521 424.543 195.247 425.597 194.7C426.66 194.144 427.457 193.287 427.988 192.128C428.527 190.961 428.797 189.455 428.797 187.612C428.797 185.785 428.527 184.292 427.988 183.133C427.457 181.974 426.664 181.121 425.609 180.573C424.555 180.026 423.255 179.752 421.71 179.752H418.377V195.521ZM446.241 200.362C444.333 200.362 442.691 199.976 441.314 199.203C439.946 198.422 438.892 197.32 438.151 195.895C437.411 194.462 437.04 192.768 437.04 190.812C437.04 188.904 437.411 187.23 438.151 185.789C438.892 184.348 439.934 183.225 441.278 182.42C442.631 181.616 444.216 181.213 446.035 181.213C447.259 181.213 448.398 181.41 449.452 181.805C450.515 182.191 451.44 182.775 452.229 183.555C453.026 184.336 453.646 185.318 454.089 186.501C454.531 187.677 454.753 189.053 454.753 190.631V192.043H439.093V188.856H449.911C449.911 188.115 449.75 187.459 449.428 186.888C449.106 186.316 448.659 185.87 448.088 185.548C447.524 185.218 446.868 185.053 446.12 185.053C445.339 185.053 444.647 185.234 444.043 185.596C443.448 185.95 442.981 186.429 442.643 187.033C442.305 187.628 442.131 188.292 442.123 189.025V192.055C442.123 192.973 442.292 193.766 442.631 194.434C442.977 195.102 443.464 195.617 444.091 195.979C444.719 196.342 445.464 196.523 446.325 196.523C446.897 196.523 447.42 196.442 447.895 196.281C448.37 196.12 448.776 195.879 449.114 195.557C449.452 195.235 449.71 194.84 449.887 194.374L454.644 194.688C454.403 195.83 453.907 196.829 453.159 197.682C452.418 198.527 451.461 199.187 450.285 199.662C449.118 200.129 447.77 200.362 446.241 200.362ZM473.54 186.743L468.831 187.033C468.75 186.63 468.577 186.268 468.312 185.946C468.046 185.616 467.696 185.354 467.261 185.161C466.835 184.96 466.323 184.859 465.728 184.859C464.931 184.859 464.259 185.028 463.711 185.366C463.164 185.696 462.89 186.139 462.89 186.695C462.89 187.137 463.068 187.512 463.422 187.817C463.776 188.123 464.384 188.369 465.245 188.554L468.601 189.23C470.404 189.6 471.749 190.196 472.634 191.017C473.519 191.838 473.962 192.917 473.962 194.253C473.962 195.468 473.604 196.535 472.888 197.452C472.179 198.37 471.205 199.086 469.966 199.602C468.734 200.109 467.314 200.362 465.704 200.362C463.249 200.362 461.293 199.851 459.836 198.829C458.387 197.799 457.538 196.398 457.288 194.627L462.347 194.362C462.5 195.11 462.87 195.682 463.458 196.076C464.046 196.462 464.798 196.656 465.716 196.656C466.617 196.656 467.342 196.482 467.889 196.136C468.444 195.782 468.726 195.327 468.734 194.772C468.726 194.305 468.529 193.923 468.143 193.625C467.756 193.319 467.161 193.086 466.356 192.925L463.144 192.285C461.333 191.923 459.985 191.295 459.099 190.401C458.222 189.508 457.783 188.369 457.783 186.984C457.783 185.793 458.105 184.767 458.749 183.906C459.401 183.044 460.315 182.38 461.49 181.913C462.673 181.446 464.058 181.213 465.643 181.213C467.986 181.213 469.829 181.708 471.173 182.698C472.525 183.688 473.314 185.036 473.54 186.743ZM482.489 200.35C481.306 200.35 480.252 200.145 479.326 199.734C478.4 199.316 477.668 198.7 477.129 197.887C476.597 197.066 476.332 196.044 476.332 194.82C476.332 193.79 476.521 192.925 476.899 192.224C477.277 191.524 477.793 190.961 478.445 190.534C479.097 190.107 479.837 189.786 480.666 189.568C481.503 189.351 482.381 189.198 483.298 189.109C484.377 188.997 485.246 188.892 485.906 188.795C486.566 188.691 487.045 188.538 487.343 188.337C487.641 188.135 487.79 187.838 487.79 187.443V187.371C487.79 186.606 487.548 186.014 487.065 185.596C486.59 185.177 485.914 184.968 485.037 184.968C484.111 184.968 483.375 185.173 482.827 185.584C482.28 185.986 481.918 186.493 481.741 187.105L476.984 186.719C477.225 185.592 477.7 184.618 478.408 183.797C479.117 182.968 480.03 182.332 481.149 181.889C482.276 181.438 483.58 181.213 485.061 181.213C486.091 181.213 487.077 181.334 488.019 181.575C488.969 181.817 489.81 182.191 490.543 182.698C491.283 183.205 491.867 183.857 492.293 184.654C492.72 185.443 492.933 186.389 492.933 187.491V200H488.055V197.428H487.911C487.613 198.008 487.214 198.519 486.715 198.962C486.216 199.396 485.616 199.738 484.916 199.988C484.216 200.229 483.407 200.35 482.489 200.35ZM483.962 196.8C484.719 196.8 485.387 196.652 485.967 196.354C486.546 196.048 487.001 195.637 487.331 195.122C487.661 194.607 487.826 194.023 487.826 193.371V191.403C487.665 191.508 487.444 191.605 487.162 191.693C486.888 191.774 486.578 191.85 486.232 191.923C485.886 191.987 485.54 192.047 485.194 192.104C484.848 192.152 484.534 192.196 484.252 192.237C483.648 192.325 483.121 192.466 482.67 192.659C482.22 192.852 481.87 193.114 481.62 193.444C481.371 193.766 481.246 194.168 481.246 194.651C481.246 195.352 481.499 195.887 482.006 196.257C482.522 196.619 483.174 196.8 483.962 196.8ZM496.924 200V181.455H501.91V184.69H502.103C502.441 183.539 503.009 182.67 503.806 182.082C504.603 181.487 505.52 181.189 506.559 181.189C506.816 181.189 507.094 181.205 507.392 181.237C507.69 181.269 507.951 181.314 508.176 181.37V185.934C507.935 185.862 507.601 185.797 507.174 185.741C506.748 185.684 506.357 185.656 506.003 185.656C505.247 185.656 504.57 185.821 503.975 186.151C503.387 186.473 502.92 186.924 502.574 187.504C502.236 188.083 502.067 188.751 502.067 189.508V200H496.924ZM510.836 200V181.455H515.822V184.69H516.015C516.354 183.539 516.921 182.67 517.718 182.082C518.515 181.487 519.432 181.189 520.471 181.189C520.728 181.189 521.006 181.205 521.304 181.237C521.602 181.269 521.863 181.314 522.089 181.37V185.934C521.847 185.862 521.513 185.797 521.086 185.741C520.66 185.684 520.269 185.656 519.915 185.656C519.159 185.656 518.483 185.821 517.887 186.151C517.299 186.473 516.832 186.924 516.486 187.504C516.148 188.083 515.979 188.751 515.979 189.508V200H510.836ZM532.264 200.362C530.388 200.362 528.766 199.964 527.398 199.167C526.038 198.362 524.987 197.243 524.247 195.81C523.506 194.37 523.136 192.699 523.136 190.8C523.136 188.884 523.506 187.21 524.247 185.777C524.987 184.336 526.038 183.217 527.398 182.42C528.766 181.616 530.388 181.213 532.264 181.213C534.139 181.213 535.757 181.616 537.118 182.42C538.486 183.217 539.54 184.336 540.281 185.777C541.021 187.21 541.392 188.884 541.392 190.8C541.392 192.699 541.021 194.37 540.281 195.81C539.54 197.243 538.486 198.362 537.118 199.167C535.757 199.964 534.139 200.362 532.264 200.362ZM532.288 196.378C533.141 196.378 533.854 196.136 534.425 195.653C534.997 195.162 535.427 194.494 535.717 193.649C536.015 192.804 536.164 191.842 536.164 190.763C536.164 189.685 536.015 188.723 535.717 187.878C535.427 187.033 534.997 186.365 534.425 185.874C533.854 185.383 533.141 185.137 532.288 185.137C531.427 185.137 530.702 185.383 530.115 185.874C529.535 186.365 529.096 187.033 528.799 187.878C528.509 188.723 528.364 189.685 528.364 190.763C528.364 191.842 528.509 192.804 528.799 193.649C529.096 194.494 529.535 195.162 530.115 195.653C530.702 196.136 531.427 196.378 532.288 196.378ZM549.88 175.273V200H544.736V175.273H549.88ZM559.143 175.273V200H554V175.273H559.143ZM568.552 200.35C567.369 200.35 566.314 200.145 565.388 199.734C564.463 199.316 563.73 198.7 563.191 197.887C562.66 197.066 562.394 196.044 562.394 194.82C562.394 193.79 562.583 192.925 562.962 192.224C563.34 191.524 563.855 190.961 564.507 190.534C565.159 190.107 565.9 189.786 566.729 189.568C567.566 189.351 568.443 189.198 569.361 189.109C570.439 188.997 571.309 188.892 571.969 188.795C572.629 188.691 573.108 188.538 573.406 188.337C573.703 188.135 573.852 187.838 573.852 187.443V187.371C573.852 186.606 573.611 186.014 573.128 185.596C572.653 185.177 571.977 184.968 571.099 184.968C570.174 184.968 569.437 185.173 568.89 185.584C568.343 185.986 567.98 186.493 567.803 187.105L563.046 186.719C563.288 185.592 563.763 184.618 564.471 183.797C565.179 182.968 566.093 182.332 567.212 181.889C568.339 181.438 569.643 181.213 571.124 181.213C572.154 181.213 573.14 181.334 574.082 181.575C575.031 181.817 575.873 182.191 576.605 182.698C577.346 183.205 577.929 183.857 578.356 184.654C578.782 185.443 578.996 186.389 578.996 187.491V200H574.118V197.428H573.973C573.675 198.008 573.277 198.519 572.778 198.962C572.279 199.396 571.679 199.738 570.979 199.988C570.278 200.229 569.469 200.35 568.552 200.35ZM570.025 196.8C570.781 196.8 571.45 196.652 572.029 196.354C572.609 196.048 573.063 195.637 573.393 195.122C573.723 194.607 573.888 194.023 573.888 193.371V191.403C573.728 191.508 573.506 191.605 573.224 191.693C572.951 191.774 572.641 191.85 572.295 191.923C571.949 191.987 571.603 192.047 571.256 192.104C570.91 192.152 570.596 192.196 570.315 192.237C569.711 192.325 569.184 192.466 568.733 192.659C568.282 192.852 567.932 193.114 567.683 193.444C567.433 193.766 567.308 194.168 567.308 194.651C567.308 195.352 567.562 195.887 568.069 196.257C568.584 196.619 569.236 196.8 570.025 196.8ZM589.82 200.302C588.411 200.302 587.136 199.94 585.993 199.215C584.858 198.483 583.956 197.408 583.288 195.991C582.628 194.567 582.298 192.82 582.298 190.751C582.298 188.626 582.64 186.86 583.324 185.451C584.008 184.034 584.918 182.976 586.053 182.276C587.196 181.567 588.448 181.213 589.808 181.213C590.846 181.213 591.712 181.39 592.404 181.744C593.104 182.09 593.667 182.525 594.094 183.048C594.529 183.563 594.859 184.071 595.084 184.57H595.241V175.273H600.373V200H595.301V197.03H595.084C594.843 197.545 594.501 198.056 594.058 198.563C593.623 199.062 593.056 199.477 592.355 199.807C591.663 200.137 590.818 200.302 589.82 200.302ZM591.45 196.209C592.279 196.209 592.979 195.983 593.551 195.533C594.13 195.074 594.573 194.434 594.879 193.613C595.193 192.792 595.35 191.83 595.35 190.727C595.35 189.625 595.197 188.667 594.891 187.854C594.585 187.041 594.142 186.413 593.563 185.97C592.983 185.527 592.279 185.306 591.45 185.306C590.605 185.306 589.892 185.536 589.313 185.994C588.733 186.453 588.295 187.089 587.997 187.902C587.699 188.715 587.55 189.657 587.55 190.727C587.55 191.806 587.699 192.76 587.997 193.589C588.303 194.41 588.741 195.054 589.313 195.521C589.892 195.979 590.605 196.209 591.45 196.209ZM612.981 200.362C611.105 200.362 609.483 199.964 608.115 199.167C606.755 198.362 605.704 197.243 604.964 195.81C604.223 194.37 603.853 192.699 603.853 190.8C603.853 188.884 604.223 187.21 604.964 185.777C605.704 184.336 606.755 183.217 608.115 182.42C609.483 181.616 611.105 181.213 612.981 181.213C614.856 181.213 616.474 181.616 617.834 182.42C619.203 183.217 620.257 184.336 620.998 185.777C621.738 187.21 622.108 188.884 622.108 190.8C622.108 192.699 621.738 194.37 620.998 195.81C620.257 197.243 619.203 198.362 617.834 199.167C616.474 199.964 614.856 200.362 612.981 200.362ZM613.005 196.378C613.858 196.378 614.57 196.136 615.142 195.653C615.713 195.162 616.144 194.494 616.434 193.649C616.732 192.804 616.881 191.842 616.881 190.763C616.881 189.685 616.732 188.723 616.434 187.878C616.144 187.033 615.713 186.365 615.142 185.874C614.57 185.383 613.858 185.137 613.005 185.137C612.144 185.137 611.419 185.383 610.831 185.874C610.252 186.365 609.813 187.033 609.515 187.878C609.226 188.723 609.081 189.685 609.081 190.763C609.081 191.842 609.226 192.804 609.515 193.649C609.813 194.494 610.252 195.162 610.831 195.653C611.419 196.136 612.144 196.378 613.005 196.378ZM625.453 200V181.455H630.439V184.69H630.633C630.971 183.539 631.538 182.67 632.335 182.082C633.132 181.487 634.05 181.189 635.088 181.189C635.345 181.189 635.623 181.205 635.921 181.237C636.219 181.269 636.48 181.314 636.706 181.37V185.934C636.464 185.862 636.13 185.797 635.704 185.741C635.277 185.684 634.887 185.656 634.532 185.656C633.776 185.656 633.1 185.821 632.504 186.151C631.916 186.473 631.45 186.924 631.104 187.504C630.765 188.083 630.596 188.751 630.596 189.508V200H625.453ZM647.331 200V175.273H652.474V184.57H652.631C652.857 184.071 653.183 183.563 653.609 183.048C654.044 182.525 654.607 182.09 655.3 181.744C656 181.39 656.869 181.213 657.907 181.213C659.26 181.213 660.507 181.567 661.65 182.276C662.793 182.976 663.707 184.034 664.391 185.451C665.075 186.86 665.417 188.626 665.417 190.751C665.417 192.82 665.083 194.567 664.415 195.991C663.755 197.408 662.854 198.483 661.711 199.215C660.576 199.94 659.304 200.302 657.895 200.302C656.897 200.302 656.048 200.137 655.348 199.807C654.656 199.477 654.088 199.062 653.645 198.563C653.203 198.056 652.865 197.545 652.631 197.03H652.402V200H647.331ZM652.366 190.727C652.366 191.83 652.519 192.792 652.824 193.613C653.13 194.434 653.573 195.074 654.153 195.533C654.732 195.983 655.436 196.209 656.265 196.209C657.103 196.209 657.811 195.979 658.39 195.521C658.97 195.054 659.409 194.41 659.706 193.589C660.012 192.76 660.165 191.806 660.165 190.727C660.165 189.657 660.016 188.715 659.719 187.902C659.421 187.089 658.982 186.453 658.403 185.994C657.823 185.536 657.111 185.306 656.265 185.306C655.428 185.306 654.72 185.527 654.14 185.97C653.569 186.413 653.13 187.041 652.824 187.854C652.519 188.667 652.366 189.625 652.366 190.727ZM674.138 200.35C672.955 200.35 671.9 200.145 670.974 199.734C670.049 199.316 669.316 198.7 668.777 197.887C668.246 197.066 667.98 196.044 667.98 194.82C667.98 193.79 668.169 192.925 668.548 192.224C668.926 191.524 669.441 190.961 670.093 190.534C670.745 190.107 671.486 189.786 672.315 189.568C673.152 189.351 674.029 189.198 674.947 189.109C676.025 188.997 676.895 188.892 677.555 188.795C678.215 188.691 678.694 188.538 678.991 188.337C679.289 188.135 679.438 187.838 679.438 187.443V187.371C679.438 186.606 679.197 186.014 678.714 185.596C678.239 185.177 677.563 184.968 676.685 184.968C675.76 184.968 675.023 185.173 674.476 185.584C673.929 185.986 673.566 186.493 673.389 187.105L668.632 186.719C668.874 185.592 669.348 184.618 670.057 183.797C670.765 182.968 671.679 182.332 672.798 181.889C673.924 181.438 675.228 181.213 676.71 181.213C677.74 181.213 678.726 181.334 679.668 181.575C680.617 181.817 681.459 182.191 682.191 182.698C682.932 183.205 683.515 183.857 683.942 184.654C684.368 185.443 684.582 186.389 684.582 187.491V200H679.704V197.428H679.559C679.261 198.008 678.863 198.519 678.364 198.962C677.865 199.396 677.265 199.738 676.565 199.988C675.864 200.229 675.055 200.35 674.138 200.35ZM675.611 196.8C676.367 196.8 677.036 196.652 677.615 196.354C678.195 196.048 678.649 195.637 678.979 195.122C679.309 194.607 679.474 194.023 679.474 193.371V191.403C679.313 191.508 679.092 191.605 678.81 191.693C678.537 191.774 678.227 191.85 677.881 191.923C677.535 191.987 677.188 192.047 676.842 192.104C676.496 192.152 676.182 192.196 675.901 192.237C675.297 192.325 674.77 192.466 674.319 192.659C673.868 192.852 673.518 193.114 673.268 193.444C673.019 193.766 672.894 194.168 672.894 194.651C672.894 195.352 673.148 195.887 673.655 196.257C674.17 196.619 674.822 196.8 675.611 196.8ZM696.951 200.362C695.052 200.362 693.418 199.96 692.049 199.155C690.689 198.342 689.643 197.215 688.91 195.774C688.186 194.333 687.824 192.675 687.824 190.8C687.824 188.9 688.19 187.234 688.922 185.801C689.663 184.36 690.713 183.237 692.074 182.433C693.434 181.62 695.052 181.213 696.927 181.213C698.545 181.213 699.962 181.507 701.177 182.094C702.393 182.682 703.355 183.507 704.063 184.57C704.771 185.632 705.162 186.88 705.234 188.312H700.38C700.243 187.387 699.881 186.642 699.294 186.079C698.714 185.507 697.953 185.222 697.012 185.222C696.215 185.222 695.519 185.439 694.923 185.874C694.335 186.3 693.877 186.924 693.547 187.745C693.217 188.566 693.051 189.56 693.051 190.727C693.051 191.911 693.212 192.917 693.534 193.746C693.864 194.575 694.327 195.207 694.923 195.641C695.519 196.076 696.215 196.293 697.012 196.293C697.599 196.293 698.127 196.173 698.593 195.931C699.068 195.69 699.459 195.339 699.765 194.881C700.078 194.414 700.284 193.854 700.38 193.202H705.234C705.154 194.619 704.767 195.867 704.075 196.945C703.391 198.016 702.445 198.853 701.238 199.457C700.03 200.06 698.601 200.362 696.951 200.362ZM713.188 194.663L713.2 188.494H713.948L719.889 181.455H725.793L717.812 190.776H716.593L713.188 194.663ZM708.527 200V175.273H713.671V200H708.527ZM720.118 200L714.661 191.923L718.09 188.288L726.143 200H720.118ZM736.004 200.362C734.097 200.362 732.455 199.976 731.078 199.203C729.71 198.422 728.655 197.32 727.915 195.895C727.174 194.462 726.804 192.768 726.804 190.812C726.804 188.904 727.174 187.23 727.915 185.789C728.655 184.348 729.698 183.225 731.042 182.42C732.394 181.616 733.98 181.213 735.799 181.213C737.022 181.213 738.161 181.41 739.216 181.805C740.278 182.191 741.204 182.775 741.993 183.555C742.79 184.336 743.41 185.318 743.852 186.501C744.295 187.677 744.516 189.053 744.516 190.631V192.043H728.857V188.856H739.675C739.675 188.115 739.514 187.459 739.192 186.888C738.87 186.316 738.423 185.87 737.852 185.548C737.288 185.218 736.632 185.053 735.884 185.053C735.103 185.053 734.411 185.234 733.807 185.596C733.211 185.95 732.744 186.429 732.406 187.033C732.068 187.628 731.895 188.292 731.887 189.025V192.055C731.887 192.973 732.056 193.766 732.394 194.434C732.74 195.102 733.227 195.617 733.855 195.979C734.483 196.342 735.228 196.523 736.089 196.523C736.66 196.523 737.183 196.442 737.658 196.281C738.133 196.12 738.54 195.879 738.878 195.557C739.216 195.235 739.473 194.84 739.651 194.374L744.408 194.688C744.166 195.83 743.671 196.829 742.923 197.682C742.182 198.527 741.224 199.187 740.049 199.662C738.882 200.129 737.534 200.362 736.004 200.362ZM753.016 189.278V200H747.873V181.455H752.775V184.727H752.992C753.403 183.648 754.091 182.795 755.057 182.167C756.023 181.531 757.194 181.213 758.57 181.213C759.858 181.213 760.981 181.495 761.939 182.058C762.897 182.622 763.641 183.427 764.173 184.473C764.704 185.511 764.969 186.751 764.969 188.192V200H759.826V189.109C759.834 187.974 759.544 187.089 758.957 186.453C758.369 185.809 757.56 185.487 756.53 185.487C755.838 185.487 755.226 185.636 754.695 185.934C754.171 186.232 753.761 186.666 753.463 187.238C753.173 187.801 753.024 188.482 753.016 189.278ZM775.857 200.302C774.448 200.302 773.173 199.94 772.03 199.215C770.895 198.483 769.993 197.408 769.325 195.991C768.665 194.567 768.335 192.82 768.335 190.751C768.335 188.626 768.677 186.86 769.361 185.451C770.046 184.034 770.955 182.976 772.09 182.276C773.233 181.567 774.485 181.213 775.845 181.213C776.883 181.213 777.749 181.39 778.441 181.744C779.141 182.09 779.705 182.525 780.131 183.048C780.566 183.563 780.896 184.071 781.121 184.57H781.278V175.273H786.41V200H781.339V197.03H781.121C780.88 197.545 780.538 198.056 780.095 198.563C779.66 199.062 779.093 199.477 778.393 199.807C777.7 200.137 776.855 200.302 775.857 200.302ZM777.487 196.209C778.316 196.209 779.016 195.983 779.588 195.533C780.167 195.074 780.61 194.434 780.916 193.613C781.23 192.792 781.387 191.83 781.387 190.727C781.387 189.625 781.234 188.667 780.928 187.854C780.622 187.041 780.18 186.413 779.6 185.97C779.02 185.527 778.316 185.306 777.487 185.306C776.642 185.306 775.93 185.536 775.35 185.994C774.77 186.453 774.332 187.089 774.034 187.902C773.736 188.715 773.587 189.657 773.587 190.727C773.587 191.806 773.736 192.76 774.034 193.589C774.34 194.41 774.778 195.054 775.35 195.521C775.93 195.979 776.642 196.209 777.487 196.209Z" fill="#B8B5B5"/>
<path fill-rule="evenodd" clip-rule="evenodd" d="M0 267.941L29 270.613C57 273.284 114 278.628 171 280.409C229 282.19 286 280.409 343 275.065C400 269.722 457 260.817 514 263.489C571 266.16 629 280.409 686 285.752C743 291.095 800 287.533 857 285.752C914 283.971 971 283.971 1029 283.08C1086 282.19 1143 280.409 1171 279.518L1200 278.628V300H1171C1143 300 1086 300 1029 300C971 300 914 300 857 300C800 300 743 300 686 300C629 300 571 300 514 300C457 300 400 300 343 300C286 300 229 300 171 300C114 300 57 300 29 300H0V267.941Z" fill="#740EE0"/>
<path fill-rule="evenodd" clip-rule="evenodd" d="M1200 32.0587L1171 29.3871C1143 26.7155 1086 21.3724 1029 19.5914C971 17.8104 914 19.5914 857 24.9345C800 30.2776 743 39.1828 686 36.5112C629 33.8397 571 19.5914 514 14.2483C457 8.90518 400 12.4673 343 14.2483C286 16.0293 229 16.0293 171 16.9198C114 17.8104 57 19.5914 29 20.4819L0 21.3724V0L29 0C57 0 114 0 171 0C229 0 286 0 343 0C400 0 457 0 514 0C571 0 629 0 686 0C743 0 800 0 857 0C914 0 971 0 1029 0C1086 0 1143 0 1171 0H1200V32.0587Z" fill="#740EE0"/>
</g>
<defs>
<clipPath id="clip0_16_23">
<rect width="1200" height="300" fill="white"/>
</clipPath>
</defs>
</svg>
